<?xml version="1.0" encoding="UTF-8"?>
<svg version="1.1" xmlns="http://www.w3.org/2000/svg" width="250" height="250">
<path d="M0 0 C0.79041687 -0.0065712 1.58083374 -0.0131424 2.39520264 -0.01991272 C5.0267343 -0.03971339 7.65820841 -0.0513303 10.28979492 -0.0612793 C11.18960272 -0.06535482 12.08941051 -0.06943035 13.01648521 -0.07362938 C17.7894709 -0.09453025 22.5624276 -0.10880805 27.33544922 -0.11816406 C32.2433173 -0.12916825 37.15072438 -0.16348638 42.05843067 -0.20333576 C45.84798458 -0.22963436 49.6374316 -0.23786814 53.42706871 -0.24144554 C55.23417928 -0.24628639 57.04128589 -0.25782808 58.84830666 -0.27648354 C75.74089556 -0.43987744 89.31319046 2.58994735 102.20776367 14.36450195 C112.95340726 25.88507176 115.92555947 38.80350895 115.81420898 54.05615234 C115.8150015 55.42544688 115.81710377 56.79474119 115.82040405 58.16403198 C115.82549871 61.85151541 115.81208703 65.53871555 115.79487705 69.22615361 C115.77975937 73.09204077 115.78101334 76.95792551 115.7802124 80.82383728 C115.77653182 87.30383093 115.76161739 93.78371787 115.73901367 100.26367188 C115.71002875 108.59010927 115.69977829 116.91646139 115.69533157 125.24294376 C115.69135944 132.40363066 115.67886605 139.56429891 115.6649847 146.72497249 C115.66088234 149.02821164 115.65795872 151.33145013 115.65518951 153.63469124 C115.65031045 157.24216262 115.64013089 160.8495818 115.6257515 164.45702744 C115.61904533 166.41885798 115.61722176 168.38070329 115.61550903 170.34254456 C115.60979889 171.49903503 115.60408875 172.65552551 115.59820557 173.84706116 C115.5952309 174.85818498 115.59225624 175.8693088 115.58919144 176.91107273 C115.45776367 179.17700195 115.45776367 179.17700195 114.45776367 180.17700195 C112.87853638 180.2751133 111.29491834 180.30332087 109.71264648 180.3039856 C108.68619019 180.30680542 107.65973389 180.30962524 106.60217285 180.31253052 C105.46654907 180.31050629 104.33092529 180.30848206 103.16088867 180.30639648 C101.97241333 180.3081488 100.78393799 180.30990112 99.55944824 180.31170654 C96.29093591 180.31536466 93.02246379 180.31449167 89.75395203 180.31132746 C86.34044304 180.30880342 82.92693682 180.31114152 79.51342773 180.31271362 C73.78002436 180.31453519 68.04663385 180.31212934 62.31323242 180.30737305 C55.67570591 180.30193045 49.03821012 180.30369311 42.40068436 180.30919945 C36.71152101 180.31373095 31.02236693 180.31438095 25.33320236 180.31176078 C21.93107347 180.31019821 18.52895903 180.31000371 15.12683105 180.31329727 C11.33607879 180.31582205 7.54538644 180.31198566 3.75463867 180.30639648 C2.61901489 180.30842072 1.48339111 180.31044495 0.31335449 180.31253052 C-0.71310181 180.30971069 -1.73955811 180.30689087 -2.79711914 180.3039856 C-3.69456848 180.30360857 -4.59201782 180.30323154 -5.5166626 180.30284309 C-7.54223633 180.17700195 -7.54223633 180.17700195 -8.54223633 179.17700195 C-8.64217165 177.11644885 -8.67304538 175.05247605 -8.67504883 172.98950195 C-8.67633789 171.73395508 -8.67762695 170.4784082 -8.67895508 169.18481445 C-8.67686035 168.52771484 -8.67476562 167.87061523 -8.67260742 167.19360352 C-8.66725867 165.18538861 -8.67255324 163.17739736 -8.67895508 161.16918945 C-8.67766602 159.91364258 -8.67637695 158.6580957 -8.67504883 157.36450195 C-8.6739209 156.20305664 -8.67279297 155.04161133 -8.67163086 153.8449707 C-8.54223633 151.17700195 -8.54223633 151.17700195 -7.54223633 150.17700195 C-5.52953572 150.06372254 -3.51288679 150.02014743 -1.49707031 150.00341797 C-0.20159775 149.98992813 1.09387482 149.97643829 2.42860413 149.96253967 C3.1259926 149.95747972 3.82338108 149.95241978 4.54190254 149.9472065 C6.72438676 149.93081268 8.90669758 149.90757028 11.08909607 149.88230896 C17.29628847 149.81152716 23.50355601 149.7516981 29.7109375 149.70019531 C33.50529849 149.66823074 37.29946749 149.62689941 41.0936718 149.57999992 C42.53559819 149.56406848 43.97756889 149.55170645 45.41955757 149.54309273 C56.31152819 149.47715063 65.66165539 149.23343549 74.45776367 142.17700195 C79.82963394 135.81557663 80.70659846 128.58402944 80.71655273 120.51098633 C80.72005737 119.79115067 80.72356201 119.071315 80.72717285 118.32966614 C80.73589508 115.97659337 80.73017503 113.62382719 80.72338867 111.27075195 C80.72473806 109.61983178 80.72668087 107.96891199 80.72918701 106.31799316 C80.7321254 102.86845086 80.72788217 99.41901257 80.71850586 95.96948242 C80.70711209 91.56487496 80.71367847 87.16051131 80.72565079 82.75591278 C80.7329042 79.3499775 80.73056552 75.9440993 80.7253952 72.53816223 C80.72406832 70.91477936 80.72567243 69.29139118 80.73035431 67.66801453 C80.73547713 65.39287743 80.72762948 63.11812621 80.71655273 60.84301758 C80.71496155 59.55254517 80.71337036 58.26207275 80.71173096 56.93249512 C80.20370512 49.42015922 78.19730224 43.08501401 73.45776367 37.17700195 C64.99943281 30.03441145 54.50429264 30.85955089 44.05541992 30.7980957 C42.56708202 30.78189979 41.07875456 30.76471763 39.59043884 30.74659729 C35.69636849 30.70116677 31.80228388 30.66621578 27.90808105 30.63439941 C21.65104849 30.58226014 15.39416762 30.51751242 9.13732719 30.44618416 C6.9519223 30.42332066 4.76653713 30.40707919 2.58106995 30.39146423 C1.26557663 30.3779744 -0.04991669 30.36448456 -1.40527344 30.35058594 C-2.56917099 30.34107407 -3.73306854 30.33156219 -4.93223572 30.32176208 C-7.54223633 30.17700195 -7.54223633 30.17700195 -8.54223633 29.17700195 C-8.64217165 27.11644885 -8.67304538 25.05247605 -8.67504883 22.98950195 C-8.67633789 21.73395508 -8.67762695 20.4784082 -8.67895508 19.18481445 C-8.67686035 18.52771484 -8.67476562 17.87061523 -8.67260742 17.19360352 C-8.66725867 15.18538861 -8.67255324 13.17739736 -8.67895508 11.16918945 C-8.67766602 9.91364258 -8.67637695 8.6580957 -8.67504883 7.36450195 C-8.67335693 5.62233398 -8.67335693 5.62233398 -8.67163086 3.8449707 C-8.41276111 -1.49263053 -4.31964977 0.01541155 0 0 Z " fill="#3F7DDA" transform="translate(71.542236328125,34.822998046875)"/>
<path d="M0 0 C5.18993092 0.22762855 8.94915287 2.44950047 13.25 5.125 C14.75815745 6.03804119 16.26734188 6.94938738 17.77734375 7.859375 C18.60476074 8.36017578 19.43217773 8.86097656 20.28466797 9.37695312 C24.31832305 11.7880068 28.39527252 14.1217611 32.47216797 16.45874023 C35.81383872 18.37576799 39.14768445 20.3058532 42.48046875 22.23828125 C46.67247556 24.6669984 50.88261719 27.05732583 55.11328125 29.41796875 C56.95087195 30.46553016 58.78813124 31.5136732 60.625 32.5625 C61.47811768 33.02640137 62.33123535 33.49030273 63.21020508 33.96826172 C63.97872803 34.41314941 64.74725098 34.85803711 65.5390625 35.31640625 C66.21146973 35.69224854 66.88387695 36.06809082 67.57666016 36.45532227 C69 38 69 38 69.57055664 40.92407227 C69 44 69 44 66.62426758 46.06787109 C65.53782959 46.67195801 64.4513916 47.27604492 63.33203125 47.8984375 C62.74508987 48.2335434 62.1581485 48.56864929 61.55342102 48.91390991 C60.32161266 49.61454407 59.08426315 50.30551609 57.84185791 50.98718262 C55.01708969 52.54049156 52.23812554 54.17246333 49.44921875 55.7890625 C47.19666167 57.07008364 44.94271596 58.34866559 42.6875 59.625 C35.42096164 63.7385002 28.17217253 67.86774414 21.0234375 72.18359375 C19.38822144 73.16368408 19.38822144 73.16368408 17.7199707 74.16357422 C15.65656459 75.40452162 13.60004027 76.65700403 11.55151367 77.92236328 C10.62830322 78.47520996 9.70509277 79.02805664 8.75390625 79.59765625 C7.95283447 80.08758057 7.1517627 80.57750488 6.32641602 81.08227539 C3.45475932 82.21508655 1.90888879 81.91508205 -1 81 C-2.69130276 79.30869724 -2.13193176 77.2054547 -2.14663696 74.94781494 C-2.14618378 74.2251947 -2.14573059 73.50257446 -2.14526367 72.75805664 C-2.14862228 72.0003447 -2.1519809 71.24263275 -2.15544128 70.46195984 C-2.16497922 67.94467553 -2.16689581 65.42745753 -2.16796875 62.91015625 C-2.17117936 61.16759717 -2.17454328 59.42503836 -2.17805481 57.68247986 C-2.1840532 54.02472305 -2.18589398 50.3669899 -2.18530273 46.70922852 C-2.18520107 42.01351071 -2.19885437 37.31794398 -2.21607494 32.622262 C-2.22717295 29.02183836 -2.22922262 25.42145149 -2.22869301 21.8210125 C-2.22987641 20.08939531 -2.23431822 18.35777727 -2.24202538 16.62617683 C-2.25178111 14.20778841 -2.2489649 11.78973121 -2.24291992 9.37133789 C-2.24853943 8.65074188 -2.25415894 7.93014587 -2.25994873 7.18771362 C-2.2283157 2.2283157 -2.2283157 2.2283157 0 0 Z " fill="#388DD9" transform="translate(65,84)"/>
</svg>
